<svg width="26" height="26" fill="none" xmlns="http://www.w3.org/2000/svg"><path d="M21.49 6.053c0 .853-.69 1.564-1.563 1.564-.874 0-1.564-.69-1.564-1.564 0-.873.69-1.564 1.564-1.564.873.02 1.564.711 1.564 1.564zM13 17.327A4.33 4.33 0 018.673 13 4.33 4.33 0 0113 8.673 4.317 4.317 0 0117.327 13 4.317 4.317 0 0113 17.327zm0-11.01A6.675 6.675 0 006.317 13 6.675 6.675 0 0013 19.683 6.675 6.675 0 0019.683 13 6.675 6.675 0 0013 6.317zm0-3.981c3.473 0 3.88.02 5.26.081 1.26.061 1.95.264 2.418.447.61.244 1.036.508 1.503.975.447.447.732.894.975 1.503.183.467.386 1.138.447 2.417.061 1.361.081 1.788.081 5.261 0 3.474-.02 3.88-.08 5.261-.062 1.26-.265 1.95-.448 2.417-.243.61-.508 1.036-.975 1.504-.447.446-.893.73-1.503.975-.467.182-1.137.386-2.417.446-1.361.061-1.788.082-5.261.082s-3.88-.02-5.26-.082c-1.26-.06-1.95-.264-2.418-.446-.61-.244-1.036-.508-1.503-.975-.447-.447-.732-.894-.975-1.504-.183-.467-.386-1.137-.447-2.417-.061-1.36-.081-1.787-.081-5.26 0-3.474.02-3.88.08-5.262.062-1.259.265-1.95.448-2.417.244-.61.508-1.036.975-1.503.447-.447.894-.731 1.503-.975.467-.183 1.137-.386 2.417-.447 1.381-.06 1.788-.081 5.261-.081zM13 0C9.466 0 9.019.02 7.638.081c-1.382.061-2.336.285-3.149.61a6.08 6.08 0 00-2.295 1.503C1.483 2.925 1.016 3.636.69 4.489.366 5.322.142 6.256.08 7.638.021 9.018 0 9.466 0 13s.02 3.981.081 5.363c.061 1.38.285 2.335.61 3.148a6.08 6.08 0 001.503 2.295 6.798 6.798 0 002.295 1.503c.833.325 1.767.549 3.149.61 1.38.06 1.828.081 5.362.081s3.981-.02 5.363-.081c1.38-.061 2.335-.285 3.148-.61a6.079 6.079 0 002.295-1.503c.732-.731 1.158-1.442 1.503-2.295.325-.833.549-1.767.61-3.148.06-1.382.081-1.829.081-5.363 0-3.534-.02-3.981-.081-5.362-.061-1.382-.285-2.336-.61-3.149a6.08 6.08 0 00-1.503-2.295c-.731-.732-1.442-1.158-2.295-1.503-.833-.325-1.767-.549-3.148-.61C16.98.021 16.534 0 13 0z" fill="#000"/></svg>