<svg width="14" height="26" viewBox="0 0 14 26" fill="none" xmlns="http://www.w3.org/2000/svg">
<path d="M9.22975 25.9791C9.09346 25.9843 9.00623 25.9946 8.919 25.9946C7.05452 25.9946 5.19548 25.9894 3.331 25.9998C3.06931 25.9998 2.99844 25.9327 2.99844 25.685C3.00389 21.5779 3.00389 17.4655 3.00389 13.3584C3.00389 13.25 3.00389 13.1417 3.00389 13.0023C1.98988 13.0023 1.00312 13.0023 0 13.0023C0 11.537 0 10.0974 0 8.61656C0.103583 8.61656 0.201713 8.61656 0.294393 8.61656C1.11215 8.61656 1.92991 8.6114 2.74766 8.62172C2.95483 8.62172 3.00935 8.56496 3.00935 8.37405C2.99844 7.22342 2.99844 6.06764 3.00935 4.91701C3.0148 4.11209 3.15109 3.32781 3.54361 2.60028C4.10514 1.57349 4.99377 0.907885 6.11682 0.495105C7.03271 0.154561 7.99766 0.0307273 8.96807 0.015248C10.5491 -0.00539099 12.1301 0.00492851 13.7111 -0.000231241C13.8583 -0.000231241 13.9782 -0.00539098 13.9782 0.19068C13.9727 1.60961 13.9727 3.02854 13.9727 4.44748C13.9727 4.46295 13.9673 4.47843 13.9455 4.54551C13.8528 4.54551 13.7492 4.54551 13.6456 4.54551C12.6643 4.54551 11.683 4.54035 10.7017 4.54551C10.1347 4.54551 9.67679 4.76222 9.38785 5.23176C9.30062 5.37107 9.24611 5.55166 9.24611 5.71678C9.22975 6.59393 9.24611 7.47109 9.2352 8.34825C9.2352 8.55464 9.30062 8.6114 9.51324 8.6114C10.8762 8.60108 12.2391 8.60624 13.602 8.60624C13.7111 8.60624 13.8146 8.60624 14 8.60624C13.8092 10.0819 13.6238 11.5267 13.433 12.9869C12.0156 12.9869 10.6363 12.9869 9.22975 12.9869C9.22975 17.3262 9.22975 21.6398 9.22975 25.9791Z" fill="black"/>
</svg>
