<?xml version="1.0" encoding="utf-8"?>
<!-- Generator: Adobe Illustrator 21.1.0, SVG Export Plug-In . SVG Version: 6.00 Build 0)  -->
<svg version="1.1"
	 id="Слой_1" xmlns:cc="http://creativecommons.org/ns#" xmlns:dc="http://purl.org/dc/elements/1.1/" xmlns:inkscape="http://www.inkscape.org/namespaces/inkscape" xmlns:rdf="http://www.w3.org/1999/02/22-rdf-syntax-ns#" xmlns:sodipodi="http://sodipodi.sourceforge.net/DTD/sodipodi-0.dtd" xmlns:svg="http://www.w3.org/2000/svg"
	 xmlns="http://www.w3.org/2000/svg" xmlns:xlink="http://www.w3.org/1999/xlink" x="0px" y="0px" viewBox="0 0 60 38"
	 style="enable-background:new 0 0 60 38;" xml:space="preserve">
<g transform="translate(0,-952.36218)">
	<path d="M60,971.4c0-0.5-0.3-1.1-0.6-1.4l-16-17c-0.7-0.8-2-0.9-2.8-0.1c-0.8,0.7-0.8,2.1-0.1,2.8l12.8,13.6H2c-1.1,0-2,0.9-2,2
		s0.9,2,2,2h51.4L40.5,987c-0.7,0.8-0.7,2.1,0.1,2.8c0.8,0.8,2.1,0.7,2.8-0.1l16-17C59.9,972.3,60,971.8,60,971.4L60,971.4z"/>
</g>
</svg>
