<svg width="26" height="26" viewBox="0 0 26 26" fill="none" xmlns="http://www.w3.org/2000/svg">
<path d="M21.4906 6.05312C21.4906 6.90625 20.8 7.61719 19.9266 7.61719C19.0531 7.61719 18.3625 6.92656 18.3625 6.05312C18.3625 5.17969 19.0531 4.48906 19.9266 4.48906C20.8 4.50938 21.4906 5.2 21.4906 6.05312ZM13 17.3266C10.6031 17.3266 8.67344 15.3766 8.67344 13C8.67344 10.6234 10.6031 8.67344 13 8.67344C15.3969 8.67344 17.3266 10.6031 17.3266 13C17.3266 15.3969 15.3969 17.3266 13 17.3266ZM13 6.31719C9.30312 6.31719 6.31719 9.30312 6.31719 13C6.31719 16.6969 9.30312 19.6828 13 19.6828C16.6969 19.6828 19.6828 16.6969 19.6828 13C19.6828 9.30312 16.6969 6.31719 13 6.31719ZM13 2.33594C16.4734 2.33594 16.8797 2.35625 18.2609 2.41719C19.5203 2.47812 20.2109 2.68125 20.6781 2.86406C21.2875 3.10781 21.7141 3.37188 22.1812 3.83906C22.6281 4.28594 22.9125 4.73281 23.1562 5.34219C23.3391 5.80937 23.5422 6.47969 23.6031 7.75938C23.6641 9.12031 23.6844 9.54688 23.6844 13.0203C23.6844 16.4937 23.6641 16.9 23.6031 18.2812C23.5422 19.5406 23.3391 20.2313 23.1562 20.6984C22.9125 21.3078 22.6484 21.7344 22.1812 22.2016C21.7344 22.6484 21.2875 22.9328 20.6781 23.1766C20.2109 23.3594 19.5406 23.5625 18.2609 23.6234C16.9 23.6844 16.4734 23.7047 13 23.7047C9.52656 23.7047 9.12031 23.6844 7.73906 23.6234C6.47969 23.5625 5.78906 23.3594 5.32188 23.1766C4.7125 22.9328 4.28594 22.6688 3.81875 22.2016C3.37187 21.7547 3.0875 21.3078 2.84375 20.6984C2.66094 20.2313 2.45781 19.5609 2.39688 18.2812C2.33594 16.9203 2.31562 16.4937 2.31562 13.0203C2.31562 9.54688 2.33594 9.14062 2.39688 7.75938C2.45781 6.5 2.66094 5.80937 2.84375 5.34219C3.0875 4.73281 3.35156 4.30625 3.81875 3.83906C4.26562 3.39219 4.7125 3.10781 5.32188 2.86406C5.78906 2.68125 6.45937 2.47812 7.73906 2.41719C9.12031 2.35625 9.52656 2.33594 13 2.33594ZM13 0C9.46562 0 9.01875 0.0203125 7.6375 0.08125C6.25625 0.142188 5.30156 0.365625 4.48906 0.690625C3.63594 1.01562 2.90469 1.4625 2.19375 2.19375C1.48281 2.925 1.01562 3.63594 0.690625 4.48906C0.365625 5.32188 0.142188 6.25625 0.08125 7.6375C0.0203125 9.01875 0 9.46562 0 13C0 16.5344 0.0203125 16.9813 0.08125 18.3625C0.142188 19.7437 0.365625 20.6984 0.690625 21.5109C1.01562 22.3641 1.4625 23.0953 2.19375 23.8062C2.925 24.5172 3.63594 24.9641 4.48906 25.3094C5.32188 25.6344 6.25625 25.8578 7.6375 25.9187C9.01875 25.9797 9.46562 26 13 26C16.5344 26 16.9813 25.9797 18.3625 25.9187C19.7437 25.8578 20.6984 25.6344 21.5109 25.3094C22.3641 24.9844 23.0953 24.5375 23.8062 23.8062C24.5375 23.075 24.9641 22.3641 25.3094 21.5109C25.6344 20.6781 25.8578 19.7437 25.9187 18.3625C25.9797 16.9813 26 16.5344 26 13C26 9.46562 25.9797 9.01875 25.9187 7.6375C25.8578 6.25625 25.6344 5.30156 25.3094 4.48906C24.9844 3.63594 24.5375 2.90469 23.8062 2.19375C23.075 1.4625 22.3641 1.03594 21.5109 0.690625C20.6781 0.365625 19.7437 0.142188 18.3625 0.08125C16.9813 0.0203125 16.5344 0 13 0Z" fill="black"/>
</svg>
