<svg width="16" height="16" viewBox="0 0 16 16" fill="none" xmlns="http://www.w3.org/2000/svg">
<path d="M8 0C3.57333 0 0 3.57333 0 8C0 12.4267 3.57333 16 8 16C12.4267 16 16 12.4267 16 8C16 3.57333 12.4267 0 8 0ZM11.2356 11.2889C11.0756 11.4489 10.88 11.52 10.6667 11.52C10.4533 11.52 10.2578 11.4489 10.0978 11.2889L7.14667 8.33778V3.53778C7.14667 3.09333 7.50222 2.73778 7.94667 2.73778C8.39111 2.73778 8.74667 3.09333 8.74667 3.53778V7.68L11.2356 10.1689C11.5378 10.4711 11.5378 10.9867 11.2356 11.2889Z" fill="#5B815D"/>
</svg>
